<svg width="299.021" height="299.021" xmlns="http://www.w3.org/2000/svg">

 <g>
  <title>Layer 1</title>
  <g id="svg_1">
   <g id="svg_2">
    <path fill="#ff7d00" id="svg_3" d="m292.866,254.432c-2.288,0 -4.443,-1.285 -5.5,-3.399c-0.354,-0.684 -28.541,-52.949 -146.169,-54.727l0,51.977c0,2.342 -1.333,4.48 -3.432,5.513c-2.096,1.033 -4.594,0.793 -6.461,-0.63l-128.887,-98.774c-1.519,-1.165 -2.417,-2.967 -2.417,-4.876c0,-1.919 0.898,-3.72 2.417,-4.888l128.893,-98.77c1.87,-1.426 4.365,-1.667 6.461,-0.639c2.099,1.026 3.432,3.173 3.432,5.509l0,54.776c3.111,-0.198 7.164,-0.37 11.947,-0.37c43.861,0 145.871,13.952 145.871,143.136c0,2.858 -1.964,5.344 -4.75,5.993c-0.469,0.121 -0.931,0.169 -1.405,0.169z"/>
   </g>
  </g>
  <g id="svg_4"/>
  <g id="svg_5"/>
  <g id="svg_6"/>
  <g id="svg_7"/>
  <g id="svg_8"/>
  <g id="svg_9"/>
  <g id="svg_10"/>
  <g id="svg_11"/>
  <g id="svg_12"/>
  <g id="svg_13"/>
  <g id="svg_14"/>
  <g id="svg_15"/>
  <g id="svg_16"/>
  <g id="svg_17"/>
  <g id="svg_18"/>
 </g>
</svg>