<svg width="401.52289" height="401" xmlns="http://www.w3.org/2000/svg">
 <g>
  <title>Layer 1</title>
  <path d="m370.58984,250.97266c-5.52343,0 -10,4.47656 -10,10l0,88.78906c-0.01953,16.5625 -13.4375,29.98437 -30,30l-280.58984,0c-16.5625,-0.01563 -29.98047,-13.4375 -30,-30l0,-260.58984c0.01953,-16.5586 13.4375,-29.98047 30,-30l88.78906,0c5.52344,0 10,-4.47657 10,-10c0,-5.51954 -4.47656,-10 -10,-10l-88.78906,0c-27.60156,0.03125 -49.96875,22.39843 -50,50l0,260.59375c0.03125,27.60156 22.39844,49.96875 50,50l280.58984,0c27.60157,-0.03125 49.96875,-22.39844 50,-50l0,-88.79297c0,-5.52344 -4.47656,-10 -10,-10zm0,0" id="svg_1" fill="#2a71b2"/>
  <path d="m376.62891,13.44141c-17.57422,-17.57422 -46.06641,-17.57422 -63.64063,0l-178.40625,178.40625c-1.22266,1.22265 -2.10547,2.73828 -2.56641,4.40234l-23.46093,84.69922c-0.96485,3.47265 0.01562,7.1914 2.5625,9.74219c2.55078,2.54687 6.26953,3.52734 9.74218,2.5664l84.69922,-23.46484c1.66407,-0.46094 3.17969,-1.34375 4.40235,-2.56641l178.40234,-178.41015c17.54688,-17.58594 17.54688,-46.05469 0,-63.64063l-11.73437,-11.73437zm-220.25782,184.90625l146.01172,-146.01563l47.08985,47.08985l-146.01563,146.01562l-47.08594,-47.08984zm-9.40625,18.875l37.6211,37.625l-52.03907,14.41797l14.41797,-52.04297zm227.25782,-142.54688l-10.60547,10.60547l-47.09375,-47.09375l10.60937,-10.60547c9.76172,-9.76172 25.58985,-9.76172 35.35157,0l11.73828,11.73438c9.74609,9.77343 9.74609,25.58984 0,35.35937zm0,0" id="svg_2" fill="#2a71b2"/>
 </g>

</svg>