<svg width="32" height="32" xmlns="http://www.w3.org/2000/svg">
 <title/>

 <g>
  <title>Layer 1</title>
  <g stroke="null" data-name="Layer 48" id="Layer_48" fill="#426373">
   <path stroke="null" d="m29.65233,5.43655l-4.95697,0a1.12149,1.18582 0 0 0 -1.12149,1.18582l0,11.06369a5.45043,5.76308 0 0 0 -3.25231,-1.18582a5.49529,5.81051 0 1 0 5.49529,5.81051l0,-14.50257l3.83549,0a1.12149,1.18582 0 1 0 0,-2.37164zm-9.33078,20.36052a3.25231,3.43888 0 1 1 3.25231,-3.43888a3.25231,3.43888 0 0 1 -3.25231,3.43888z" id="svg_1" fill="#2a71b2"/>
   <path stroke="null" d="m2.53476,7.80819l14.97186,0a1.12149,1.18582 0 0 0 0,-2.37164l-14.97186,0a1.12149,1.18582 0 0 0 0,2.37164z" id="svg_2" fill="#2a71b2"/>
   <path stroke="null" d="m2.53476,15.68203l14.97186,0a1.12149,1.18582 0 1 0 0,-2.37164l-14.97186,0a1.12149,1.18582 0 0 0 0,2.37164z" id="svg_3" fill="#2a71b2"/>
   <path stroke="null" d="m12.22441,21.17237l-9.47657,0a1.12149,1.18582 0 1 0 0,2.37164l9.47657,0a1.12149,1.18582 0 0 0 0,-2.37164z" id="svg_4" fill="#2a71b2"/>
  </g>
 </g>
</svg>