<svg width="48" height="48" xmlns="http://www.w3.org/2000/svg" data-name="Layer 1">
 <title/>

 <g>
  <title>Layer 1</title>
  <path stroke="null" d="m42.44269,20.23442l-17.14274,-15.5101a1.63264,1.63264 0 0 0 -2.18774,0l-17.14274,15.5101a1.63264,1.63264 0 1 0 2.18774,2.44896l16.04887,-14.54684l16.04887,14.51418a1.63264,1.63264 0 0 0 2.18774,-2.44896l0,0.03265z" id="svg_1" fill="#2a71b2"/>
  <path stroke="null" d="m38.42783,24.5567a1.55155,1.689 0 0 0 -1.55155,1.689l0,12.66753l-24.82474,0l0,-12.66753a1.55155,1.689 0 0 0 -3.10309,0l0,14.35653a1.55155,1.689 0 0 0 1.55155,1.689l27.92784,0a1.55155,1.689 0 0 0 1.55155,-1.689l0,-14.35653a1.55155,1.689 0 0 0 -1.55155,-1.689z" id="svg_2" fill="#2a71b2"/>
 </g>
</svg>