<svg width="32" height="32" xmlns="http://www.w3.org/2000/svg">

 <g>
  <title>Layer 1</title>
  <path fill="#2a71b2" id="svg_1" font-family="Bitstream Vera Sans" overflow="visible" color="#000" d="m16,5c-3.85415,0 -7,3.14585 -7,7c0,2.40884 1.23116,4.55212 3.09375,5.8125c-3.56714,1.52983 -6.09375,5.06876 -6.09375,9.1875l2,0c0,-4.43067 3.56933,-8 8,-8c4.43067,0 8,3.56933 8,8l2,0c0,-4.11874 -2.52661,-7.65767 -6.09375,-9.1875c1.86259,-1.26038 3.09375,-3.40366 3.09375,-5.8125c0,-3.85415 -3.14585,-7 -7,-7zm0,2c2.77327,0 5,2.22673 5,5c0,2.77327 -2.22673,5 -5,5c-2.77327,0 -5,-2.22673 -5,-5c0,-2.77327 2.22673,-5 5,-5z"/>
 </g>
</svg>